<svg width="1727" height="1726" xmlns="http://www.w3.org/2000/svg" xmlns:xlink="http://www.w3.org/1999/xlink" xml:space="preserve" overflow="hidden"><g transform="translate(-2278 -320)"><rect x="2296.5" y="338.5" width="1689" height="1689" stroke="#7030A0" stroke-width="36.6667" stroke-linejoin="round" stroke-miterlimit="10" fill="none"/><path d="M2979.5 351.5 2979.5 2014.94" stroke="#7030A0" stroke-width="36.6667" stroke-miterlimit="8" fill="none" fill-rule="evenodd"/><path d="M3300.5 351.5 3300.5 2014.94" stroke="#7030A0" stroke-width="36.6667" stroke-miterlimit="8" fill="none" fill-rule="evenodd"/><path d="M3140 351 3140 2014.44" stroke="#7030A0" stroke-width="27.5" stroke-miterlimit="8" stroke-dasharray="110 82.5" fill="none" fill-rule="evenodd"/><path d="M2296.5 643.5 2973.71 643.5" stroke="#7030A0" stroke-width="36.6667" stroke-miterlimit="8" fill="none" fill-rule="evenodd"/><path d="M2302.5 924.5 2979.71 924.5" stroke="#7030A0" stroke-width="36.6667" stroke-miterlimit="8" fill="none" fill-rule="evenodd"/><path d="M2302 787 2979.21 787" stroke="#7030A0" stroke-width="27.5" stroke-miterlimit="8" stroke-dasharray="110 82.5" fill="none" fill-rule="evenodd"/><path d="M3308.5 643.5 3985.71 643.5" stroke="#7030A0" stroke-width="36.6667" stroke-miterlimit="8" fill="none" fill-rule="evenodd"/><path d="M3308.5 924.5 3985.71 924.5" stroke="#7030A0" stroke-width="36.6667" stroke-miterlimit="8" fill="none" fill-rule="evenodd"/><path d="M3510.5 739.334C3510.5 726.171 3521.17 715.5 3534.33 715.5L3772.67 715.5C3785.83 715.5 3796.5 726.171 3796.5 739.334L3796.5 834.666C3796.5 847.829 3785.83 858.5 3772.67 858.5L3534.33 858.5C3521.17 858.5 3510.5 847.829 3510.5 834.666Z" stroke="#7030A0" stroke-width="22.9167" stroke-linecap="round" stroke-linejoin="round" stroke-miterlimit="10" fill="none" fill-rule="evenodd"/><path d="M3602.5 715.5 3602.5 857.945" stroke="#7030A0" stroke-width="22.9167" stroke-miterlimit="8" fill="none" fill-rule="evenodd"/><path d="M3740.5 715.5 3740.5 857.945" stroke="#7030A0" stroke-width="22.9167" stroke-miterlimit="8" fill="none" fill-rule="evenodd"/><path d="M2292.59 1181.4C2682.1 1202.36 2984.73 1576.41 2972.13 2021.32" stroke="#7030A0" stroke-width="36.6667" stroke-miterlimit="8" fill="none" fill-rule="evenodd"/><path d="M2292.64 1394.78C2543.77 1476.48 2731.95 1729.75 2773.16 2041.52" stroke="#7030A0" stroke-width="36.6667" stroke-miterlimit="8" fill="none" fill-rule="evenodd"/><path d="M2382.63 1310.31C2633.54 1392.07 2821.53 1645.36 2862.68 1957.12" stroke="#7030A0" stroke-width="27.5" stroke-miterlimit="8" stroke-dasharray="110 82.5" fill="none" fill-rule="evenodd"/><path d="M3328.5 2027.5C3328.5 1664.65 3625.33 1370.5 3991.5 1370.5" stroke="#7030A0" stroke-width="36.6667" stroke-miterlimit="8" fill="none" fill-rule="evenodd"/><path d="M3505.94 2035.36C3570.55 1800.99 3760.41 1621.09 3999.57 1567.61" stroke="#7030A0" stroke-width="36.6667" stroke-miterlimit="8" fill="none" fill-rule="evenodd"/><path d="M3422.49 1958.74C3487.19 1724.39 3677.22 1544.52 3916.57 1491.09" stroke="#7030A0" stroke-width="27.5" stroke-miterlimit="8" stroke-dasharray="110 82.5" fill="none" fill-rule="evenodd"/></g></svg>